<?xml version="1.0" encoding="utf-8"?>
<!-- Generator: Adobe Illustrator 24.1.0, SVG Export Plug-In . SVG Version: 6.00 Build 0)  -->
<svg version="1.1" id="Layer_1" xmlns="http://www.w3.org/2000/svg" xmlns:xlink="http://www.w3.org/1999/xlink" x="0px" y="0px"
	 viewBox="0 0 100.01 108.78" style="enable-background:new 0 0 100.01 108.78;" xml:space="preserve">
<style type="text/css">
	.st0{fill:#005F9E;}
</style>
<g>
	<path class="st0" d="M100.01,23.69L64.59,3.28c0,0-5.61-3.28-14.56-3.28c-9.32,0-14.72,3.38-14.72,3.38L2.51,22.14l49.9,28.68
		v57.96l32.84-18.75c0,0,5.87-3.24,10.33-10.94c3.93-6.78,4.42-13.34,4.42-13.34V23.69L100.01,23.69z M46.61,33.12
		c0,0,7.32-1.35,13.51,2.22c6.19,3.57,9.84,5.67,9.84,5.67s0.01,4.97,0.01,12.4c0,5.95-5.04,12.12-5.04,12.12l0.01-21.83
		L46.61,33.12z M75.63,81l-10.69,6.13v-5.75l8.32-4.76c7.92-5.71,9.23-14.13,9.23-17.05l-0.03-25.86L59.77,20.65
		c0,0-3.45-2.26-9.65-2.26s-9.58,2.09-9.58,2.09l-7.97,4.58l-5.03-2.91l11.01-6.29c0,0,4.31-2.39,11.53-2.39
		c6.63,0,11.79,2.59,11.79,2.59l25.62,14.8l-0.03,28.22C87.64,63.42,85.62,74.03,75.63,81z"/>
	<path class="st0" d="M0,40.91l34.98,20.07l-0.03,5.98L15.05,55.55L2.53,62.67l32.4,18.67l0.02,5.76L0.24,67.13
		c0.09,2.34,2.21,9.55,6.27,15.13c4.12,5.65,8.82,8.05,8.82,8.05l32.08,18.47V53.71L0.03,26.49L0,40.91z"/>
</g>
</svg>
